<svg width="1407" height="199" viewBox="0 0 1407 199" fill="none" xmlns="http://www.w3.org/2000/svg">
<path d="M118.18 152.878H35.2193L19.3054 196.184H3.96521e-07L66.5252 16.1748H87.135L153.399 196.184H134.094L118.18 152.878ZM112.702 137.746L76.6997 39.1325L40.6978 137.746H112.702ZM200.97 79.0476C204.97 70.1776 211.057 63.3077 219.232 58.4379C227.58 53.568 237.754 51.1331 249.755 51.1331V70.1776H244.798C231.58 70.1776 220.971 73.743 212.97 80.8738C204.97 88.0046 200.97 99.9183 200.97 116.615V196.184H182.708V53.742H200.97V79.0476ZM268.879 124.963C268.879 110.18 271.836 97.3095 277.749 86.3524C283.662 75.2214 291.837 66.6992 302.272 60.7858C312.707 54.6985 324.621 51.6549 338.013 51.6549C355.579 51.6549 370.015 56.003 381.32 64.6991C392.799 73.3952 400.19 85.2219 403.495 100.179H383.929C381.494 89.9178 376.189 81.9174 368.015 76.1779C360.014 70.2646 350.014 67.3079 338.013 67.3079C328.447 67.3079 319.838 69.4819 312.186 73.83C304.533 78.178 298.446 84.7001 293.924 93.3962C289.576 101.918 287.402 112.441 287.402 124.963C287.402 137.486 289.576 148.095 293.924 156.791C298.446 165.487 304.533 172.009 312.186 176.357C319.838 180.705 328.447 182.879 338.013 182.879C350.014 182.879 360.014 180.009 368.015 174.27C376.189 168.357 381.494 160.182 383.929 149.747H403.495C400.19 164.356 392.799 176.096 381.32 184.966C369.841 193.836 355.405 198.271 338.013 198.271C324.621 198.271 312.707 195.315 302.272 189.401C291.837 183.314 283.662 174.792 277.749 163.835C271.836 152.704 268.879 139.747 268.879 124.963ZM505.052 51.1331C515.835 51.1331 525.488 53.3941 534.01 57.9161C542.706 62.4381 549.489 69.395 554.359 78.7868C559.402 88.0046 561.924 99.3096 561.924 112.702V196.184H543.923V114.789C543.923 99.3096 540.01 87.4829 532.184 79.3085C524.531 71.1342 514.009 67.047 500.617 67.047C486.877 67.047 475.92 71.3951 467.745 80.0912C459.571 88.7873 455.484 101.571 455.484 118.441V196.184H437.222V3.1306H455.484V78.0041C460.006 69.4819 466.615 62.8729 475.311 58.177C484.181 53.4811 494.095 51.1331 505.052 51.1331ZM611.443 26.871C607.791 26.871 604.66 25.5666 602.051 22.9577C599.443 20.3489 598.138 17.1313 598.138 13.305C598.138 9.47875 599.443 6.34815 602.051 3.91324C604.66 1.30441 607.791 -8.83232e-06 611.443 -8.83232e-06C615.096 -8.83232e-06 618.226 1.30441 620.835 3.91324C623.444 6.34815 624.748 9.47875 624.748 13.305C624.748 17.1313 623.444 20.3489 620.835 22.9577C618.226 25.5666 615.096 26.871 611.443 26.871ZM620.574 53.742V196.184H602.312V53.742H620.574Z" fill="white"/>
<path d="M705.167 6.45093L744.077 140.228H745.559L784.469 6.45093H842.649L780.022 196.184H709.614L646.987 6.45093H705.167ZM911.761 198.778C896.568 198.778 883.474 195.875 872.48 190.07C861.548 184.202 853.118 175.803 847.189 164.871C841.321 153.877 838.388 140.722 838.388 125.405C838.388 110.705 841.352 97.8589 847.281 86.8653C853.211 75.8716 861.579 67.3175 872.388 61.2031C883.196 55.0886 895.95 52.0314 910.649 52.0314C921.396 52.0314 931.124 53.699 939.832 57.0341C948.54 60.3693 955.983 65.2176 962.159 71.5791C968.335 77.8789 973.091 85.5374 976.426 94.5546C979.761 103.572 981.429 113.732 981.429 125.034V136.893H854.322V108.729H934.366C934.304 104.653 933.254 101.071 931.216 97.9824C929.24 94.8326 926.553 92.393 923.156 90.6636C919.821 88.8725 916.023 87.977 911.761 87.977C907.623 87.977 903.825 88.8725 900.366 90.6636C896.907 92.393 894.128 94.8017 892.028 97.8898C889.99 100.978 888.909 104.591 888.786 108.729V139.116C888.786 143.686 889.743 147.763 891.658 151.345C893.572 154.927 896.321 157.737 899.903 159.775C903.485 161.814 907.808 162.833 912.873 162.833C916.393 162.833 919.605 162.339 922.508 161.35C925.472 160.362 928.005 158.942 930.104 157.089C932.204 155.174 933.748 152.889 934.737 150.233H981.429C979.823 160.115 976.025 168.7 970.034 175.988C964.043 183.214 956.106 188.835 946.224 192.849C936.404 196.802 924.916 198.778 911.761 198.778ZM1002.3 196.184V53.8843H1051.95V80.9361H1053.44C1056.03 70.9306 1060.14 63.6118 1065.76 58.9796C1071.44 54.3475 1078.08 52.0314 1085.68 52.0314C1087.9 52.0314 1090.09 52.2167 1092.25 52.5873C1094.48 52.8961 1096.61 53.3593 1098.65 53.9769V97.6119C1096.11 96.7472 1092.99 96.0987 1089.29 95.6664C1085.58 95.234 1082.4 95.0179 1079.75 95.0179C1074.74 95.0179 1070.24 96.1605 1066.22 98.4457C1062.27 100.669 1059.15 103.819 1056.86 107.895C1054.58 111.91 1053.44 116.635 1053.44 122.07V196.184H1002.3ZM1245.49 100.206H1198.42C1198.18 97.3031 1197.16 94.8017 1195.37 92.7018C1193.57 90.6019 1191.26 88.996 1188.42 87.8843C1185.64 86.7108 1182.55 86.1241 1179.15 86.1241C1174.77 86.1241 1171 86.927 1167.85 88.5328C1164.7 90.1386 1163.16 92.4238 1163.22 95.3884C1163.16 97.4883 1164.05 99.4339 1165.9 101.225C1167.82 103.016 1171.49 104.406 1176.93 105.394L1205.83 110.582C1220.41 113.238 1231.25 117.715 1238.35 124.015C1245.52 130.253 1249.13 138.622 1249.19 149.122C1249.13 159.25 1246.1 168.052 1240.11 175.525C1234.18 182.936 1226.06 188.68 1215.75 192.756C1205.49 196.771 1193.79 198.778 1180.63 198.778C1158.89 198.778 1141.88 194.331 1129.59 185.438C1117.36 176.544 1110.53 164.809 1109.11 150.233H1159.88C1160.56 154.742 1162.79 158.231 1166.55 160.702C1170.38 163.111 1175.2 164.315 1181.01 164.315C1185.7 164.315 1189.56 163.512 1192.59 161.906C1195.67 160.3 1197.25 158.015 1197.31 155.051C1197.25 152.333 1195.89 150.171 1193.23 148.566C1190.64 146.96 1186.56 145.663 1181.01 144.675L1155.81 140.228C1141.29 137.696 1130.42 132.878 1123.2 125.775C1115.97 118.673 1112.39 109.532 1112.45 98.353C1112.39 88.4711 1114.98 80.1023 1120.23 73.2467C1125.54 66.3293 1133.11 61.0795 1142.93 57.4973C1152.81 53.8534 1164.52 52.0314 1178.04 52.0314C1198.61 52.0314 1214.82 56.293 1226.68 64.8162C1238.6 73.3393 1244.87 85.1359 1245.49 100.206ZM1336.97 198.778C1321.78 198.778 1308.68 195.875 1297.69 190.07C1286.76 184.202 1278.33 175.803 1272.4 164.871C1266.53 153.877 1263.6 140.722 1263.6 125.405C1263.6 110.705 1266.56 97.8589 1272.49 86.8653C1278.42 75.8716 1286.79 67.3175 1297.6 61.2031C1308.41 55.0886 1321.16 52.0314 1335.86 52.0314C1346.61 52.0314 1356.33 53.699 1365.04 57.0341C1373.75 60.3693 1381.19 65.2176 1387.37 71.5791C1393.54 77.8789 1398.3 85.5374 1401.64 94.5546C1404.97 103.572 1406.64 113.732 1406.64 125.034V136.893H1279.53V108.729H1359.58C1359.51 104.653 1358.46 101.071 1356.43 97.9824C1354.45 94.8326 1351.76 92.393 1348.37 90.6636C1345.03 88.8725 1341.23 87.977 1336.97 87.977C1332.83 87.977 1329.03 88.8725 1325.58 90.6636C1322.12 92.393 1319.34 94.8017 1317.24 97.8898C1315.2 100.978 1314.12 104.591 1313.99 108.729V139.116C1313.99 143.686 1314.95 147.763 1316.87 151.345C1318.78 154.927 1321.53 157.737 1325.11 159.775C1328.69 161.814 1333.02 162.833 1338.08 162.833C1341.6 162.833 1344.81 162.339 1347.72 161.35C1350.68 160.362 1353.21 158.942 1355.31 157.089C1357.41 155.174 1358.96 152.889 1359.95 150.233H1406.64C1405.03 160.115 1401.23 168.7 1395.24 175.988C1389.25 183.214 1381.32 188.835 1371.43 192.849C1361.61 196.802 1350.13 198.778 1336.97 198.778Z" fill="#F48506"/>
</svg>
